<?xml version="1.0" standalone="no"?>
<!DOCTYPE svg PUBLIC "-//W3C//DTD SVG 20010904//EN"
 "http://www.w3.org/TR/2001/REC-SVG-20010904/DTD/svg10.dtd">
<svg version="1.0" xmlns="http://www.w3.org/2000/svg"
 width="3015.000000pt" height="1159.000000pt" viewBox="0 0 3015.000000 1159.000000"
 preserveAspectRatio="xMidYMid meet">

<g transform="translate(0.000000,1159.000000) scale(0.100000,-0.100000)"
fill="#000000" stroke="none">
<path d="M2144 7113 c-1154 -1857 -2101 -3380 -2102 -3385 -2 -4 474 -7 1059
-6 l1062 3 1041 1493 c977 1403 1041 1493 1056 1475 8 -11 478 -684 1044
-1496 l1029 -1477 1063 0 c585 0 1064 2 1064 5 0 11 -4203 6765 -4209 6765 -4
0 -952 -1519 -2107 -3377z"/>
<path d="M10825 8563 c-11 -2 -56 -11 -100 -19 -351 -68 -692 -337 -865 -684
-171 -342 -166 -792 14 -1211 24 -57 85 -180 135 -274 134 -251 140 -278 85
-393 -46 -95 -151 -152 -278 -152 -88 0 -158 21 -288 88 -5 2 -8 -237 -8 -531
l0 -534 73 -26 c206 -74 424 -94 657 -62 152 22 265 56 395 120 137 67 245
146 353 256 242 247 355 514 354 839 -1 290 -71 511 -275 872 -101 178 -111
205 -111 328 -1 119 9 150 71 214 47 48 100 75 173 88 49 8 69 7 134 -11 42
-12 78 -21 81 -21 3 0 4 237 3 527 l-3 527 -86 23 c-48 12 -121 26 -164 32
-73 11 -308 13 -350 4z"/>
<path d="M19467 7298 c-3 -1280 -1 -1222 -56 -1350 -26 -62 -93 -133 -156
-166 -45 -24 -60 -27 -160 -27 -100 0 -116 3 -172 29 -74 34 -164 123 -194
191 -83 188 1 408 191 498 55 26 76 31 145 31 70 1 88 -3 145 -31 36 -18 75
-40 88 -49 l22 -16 0 560 0 560 -97 7 c-131 10 -362 0 -453 -20 -265 -58 -511
-200 -706 -408 -199 -213 -323 -449 -371 -707 -24 -129 -24 -389 0 -520 103
-556 557 -1004 1124 -1106 139 -24 338 -29 479 -10 163 21 276 55 419 126 358
176 619 510 716 916 48 203 49 231 49 1491 l0 1183 -505 0 -504 0 -4 -1182z"/>
<path d="M15816 7534 c-216 -39 -410 -140 -579 -303 -206 -198 -319 -412 -367
-689 -19 -107 -20 -165 -20 -923 l0 -809 505 0 504 0 3 808 3 807 25 45 c43
78 142 110 227 75 50 -21 72 -42 94 -90 18 -38 19 -85 19 -842 l0 -803 505 0
506 0 -4 828 c-3 911 -3 904 -68 1117 -133 431 -441 704 -878 779 -117 20
-364 20 -475 0z"/>
<path d="M22080 7544 c-284 -51 -428 -105 -611 -230 -289 -197 -484 -474 -568
-809 -53 -212 -53 -470 -1 -696 70 -303 253 -580 515 -780 260 -197 579 -293
923 -276 270 14 496 87 718 233 94 62 111 79 97 97 -21 26 -546 662 -554 671
-4 5 -31 -12 -61 -39 -83 -75 -145 -100 -248 -100 -72 0 -93 4 -135 27 -197
103 -305 408 -251 708 32 174 128 321 251 383 113 56 282 39 373 -39 42 -36
95 -131 107 -191 l7 -33 -256 0 -255 0 -23 -72 c-29 -93 -31 -262 -5 -350 l18
-58 763 0 763 0 6 68 c30 307 -48 633 -206 873 -203 308 -502 515 -857 594
-73 16 -447 30 -510 19z"/>
<path d="M25064 7534 c-269 -45 -511 -172 -727 -383 -263 -256 -403 -549 -425
-891 -28 -429 103 -787 395 -1083 235 -239 492 -370 803 -412 314 -43 632 15
885 162 351 203 612 555 690 928 49 235 31 532 -44 750 -100 289 -325 565
-607 747 -131 84 -323 156 -486 183 -115 19 -372 18 -484 -1z m416 -1021 c83
-39 154 -110 194 -193 29 -60 31 -73 31 -170 0 -96 -3 -110 -29 -165 -80 -163
-258 -256 -432 -225 -37 6 -89 23 -117 37 -68 34 -147 115 -183 188 -26 55
-29 69 -29 165 0 97 2 110 31 170 35 72 107 151 169 183 74 38 117 47 210 44
76 -2 100 -7 155 -34z"/>
<path d="M11872 6538 l3 -953 28 -99 c51 -182 123 -309 246 -433 249 -251 635
-302 990 -131 103 49 99 56 49 -75 -60 -157 -174 -291 -300 -354 -69 -34 -190
-63 -266 -63 -70 0 -205 25 -291 55 -40 13 -77 22 -82 19 -5 -3 -9 -199 -9
-435 l0 -430 36 -15 c19 -8 77 -26 127 -39 525 -139 1027 -13 1410 354 244
235 368 473 434 841 14 73 16 271 20 1398 l4 1312 -505 0 -505 0 -3 -752 c-4
-813 -3 -799 -58 -862 -40 -46 -78 -59 -149 -54 -70 5 -118 36 -147 95 -18 36
-19 76 -22 806 l-2 767 -506 0 -505 0 3 -952z"/>
</g>
</svg>
